--- Stream starting at 2026-07-08T17:48:51.213Z ---
ffmpeg version 6.1.1-essentials_build-www.gyan.dev Copyright (c) 2000-2023 the FFmpeg developers
  built with gcc 12.2.0 (Rev10, Built by MSYS2 project)
  configuration: --enable-gpl --enable-version3 --enable-static --pkg-config=pkgconf --disable-w32threads --disable-autodetect --enable-fontconfig --enable-iconv --enable-gnutls --enable-libxml2 --enable-gmp --enable-bzlib --enable-lzma --enable-zlib --enable-libsrt --enable-libssh --enable-libzmq --enable-avisynth --enable-sdl2 --enable-libwebp --enable-libx264 --enable-libx265 --enable-libxvid --enable-libaom --enable-libopenjpeg --enable-libvpx --enable-mediafoundation --enable-libass --enable-libfreetype --enable-libfribidi --enable-libharfbuzz --enable-libvidstab --enable-libvmaf --enable-libzimg --enable-amf --enable-cuda-llvm --enable-cuvid --enable-ffnvcodec --enable-nvdec --enable-nvenc --enable-dxva2 --enable-d3d11va --enable-libvpl --enable-libgme --enable-libopenmpt --enable-libopencore-amrwb --enable-libmp3lame --enable-libtheora --enable-libvo-amrwbenc --enable-libgsm --enable-libopencore-amrnb --enable-libopus --enable-libspeex --enable-libvorbis --enable-librubberband
  libavutil      58. 29.100 / 58. 29.100
  libavcodec     60. 31.102 / 60. 31.102
  libavformat    60. 16.100 / 60. 16.100
  libavdevice    60.  3.100 / 60.  3.100
  libavfilter     9. 12.100 /  9. 12.100
  libswscale      7.  5.100 /  7.  5.100
  libswresample   4. 12.100 /  4. 12.100
  libpostproc    57.  3.100 / 57.  3.100
[mov,mp4,m4a,3gp,3g2,mj2 @ 000002143f62a680] Auto-inserting h264_mp4toannexb bitstream filter
Input #0, concat, from 'C:\Projects\eternalstreams\temp_playlist.txt':
  Duration: N/A, start: 0.000000, bitrate: 5885 kb/s
  Stream #0:0(und): Video: h264 (High) (avc1 / 0x31637661), yuv420p(tv, bt709, progressive), 1920x1080 [SAR 1:1 DAR 16:9], 5757 kb/s, 59.94 fps, 59.94 tbr, 60k tbn
    Metadata:
      handler_name    : ISO Media file produced by Google Inc.
      vendor_id       : [0][0][0][0]
  Stream #0:1(eng): Audio: aac (LC) (mp4a / 0x6134706D), 44100 Hz, stereo, fltp, 128 kb/s
    Metadata:
      handler_name    : ISO Media file produced by Google Inc.
      vendor_id       : [0][0][0][0]
Stream mapping:
  Stream #0:0 -> #0:0 (h264 (native) -> h264 (libx264))
  Stream #0:1 -> #0:1 (aac (native) -> aac (native))
Press [q] to stop, [?] for help
[libx264 @ 000002143fb16440] using SAR=1/1
[libx264 @ 000002143fb16440] using cpu capabilities: MMX2 SSE2Fast SSSE3 SSE4.2 AVX FMA3 BMI2 AVX2 AVX512
[libx264 @ 000002143fb16440] profile High, level 4.2, 4:2:0, 8-bit
[libx264 @ 000002143fb16440] 264 - core 164 r3172 c1c9931 - H.264/MPEG-4 AVC codec - Copyleft 2003-2023 - http://www.videolan.org/x264.html - options: cabac=1 ref=1 deblock=1:0:0 analyse=0x3:0x113 me=hex subme=2 psy=1 psy_rd=1.00:0.00 mixed_ref=0 me_range=16 chroma_me=1 trellis=0 8x8dct=1 cqm=0 deadzone=21,11 fast_pskip=1 chroma_qp_offset=0 threads=24 lookahead_threads=8 sliced_threads=0 nr=0 decimate=1 interlaced=0 bluray_compat=0 constrained_intra=0 bframes=3 b_pyramid=2 b_adapt=1 b_bias=0 direct=1 weightb=1 open_gop=0 weightp=1 keyint=60 keyint_min=6 scenecut=40 intra_refresh=0 rc_lookahead=10 rc=cbr mbtree=1 bitrate=2500 ratetol=1.0 qcomp=0.60 qpmin=0 qpmax=69 qpstep=4 vbv_maxrate=2500 vbv_bufsize=5000 nal_hrd=none filler=0 ip_ratio=1.40 aq=1:1.00
Output #0, flv, to 'rtmps://ingest.global-contribute.live-video.net:443/app/live_1343980544_rQtJNXS7omBrzgSSjNuTU6bnXo1o6x':
  Metadata:
    encoder         : Lavf60.16.100
  Stream #0:0(und): Video: h264 ([7][0][0][0] / 0x0007), yuv420p(tv, bt709, progressive), 1920x1080 [SAR 1:1 DAR 16:9], q=2-31, 2500 kb/s, 59.94 fps, 1k tbn
    Metadata:
      handler_name    : ISO Media file produced by Google Inc.
      vendor_id       : [0][0][0][0]
      encoder         : Lavc60.31.102 libx264
    Side data:
      cpb: bitrate max/min/avg: 2500000/0/2500000 buffer size: 5000000 vbv_delay: N/A
  Stream #0:1(eng): Audio: aac (LC) ([10][0][0][0] / 0x000A), 44100 Hz, stereo, fltp, 128 kb/s
    Metadata:
      handler_name    : ISO Media file produced by Google Inc.
      vendor_id       : [0][0][0][0]
      encoder         : Lavc60.31.102 aac
frame=    0 fps=0.0 q=0.0 size=       0kB time=00:00:00.18 bitrate=  17.7kbits/s speed=6.97x    frame=    9 fps=0.0 q=45.0 size=      88kB time=00:00:00.97 bitrate= 739.6kbits/s speed=1.82x    frame=   39 fps= 37 q=39.0 size=     175kB time=00:00:01.48 bitrate= 964.6kbits/s speed=1.42x    frame=   70 fps= 45 q=35.0 size=     379kB time=00:00:01.99 bitrate=1555.6kbits/s speed=1.28x    frame=  101 fps= 49 q=39.0 size=     496kB time=00:00:02.50 bitrate=1619.0kbits/s speed=1.21x    frame=  132 fps= 51 q=35.0 size=     724kB time=00:00:03.01 bitrate=1964.5kbits/s speed=1.17x    frame=  162 fps= 53 q=38.0 size=     840kB time=00:00:03.52 bitrate=1950.8kbits/s speed=1.14x    frame=  192 fps= 53 q=35.0 size=    1053kB time=00:00:04.04 bitrate=2135.4kbits/s speed=1.12x    frame=  223 fps= 54 q=37.0 size=    1153kB time=00:00:04.55 bitrate=2075.5kbits/s speed=1.11x    frame=  254 fps= 55 q=36.0 size=    1368kB time=00:00:05.06 bitrate=2213.7kbits/s speed= 1.1x    frame=  285 fps= 56 q=37.0 size=    1477kB time=00:00:05.57 bitrate=2171.8kbits/s speed=1.09x    frame=  315 fps= 56 q=40.0 size=    1784kB time=00:00:06.08 bitrate=2402.0kbits/s speed=1.08x    frame=  346 fps= 56 q=40.0 size=    1970kB time=00:00:06.59 bitrate=2447.5kbits/s speed=1.07x    frame=  376 fps= 57 q=39.0 size=    2144kB time=00:00:07.10 bitrate=2471.9kbits/s speed=1.07x    frame=  405 fps= 57 q=40.0 size=    2313kB time=00:00:07.59 bitrate=2495.3kbits/s speed=1.06x    frame=  436 fps= 57 q=40.0 size=    2499kB time=00:00:08.10 bitrate=2526.5kbits/s speed=1.06x    frame=  465 fps= 57 q=41.0 size=    2640kB time=00:00:08.59 bitrate=2517.7kbits/s speed=1.05x    frame=  497 fps= 57 q=41.0 size=    2773kB time=00:00:09.12 bitrate=2489.6kbits/s speed=1.05x    frame=  528 fps= 58 q=41.0 size=    2877kB time=00:00:09.63 bitrate=2446.2kbits/s speed=1.05x    frame=  558 fps= 58 q=41.0 size=    3092kB time=00:00:10.12 bitrate=2501.7kbits/s speed=1.04x    frame=  588 fps= 58 q=41.0 size=    3264kB time=00:00:10.63 bitrate=2514.3kbits/s speed=1.04x    frame=  618 fps= 58 q=42.0 size=    3480kB time=00:00:11.14 bitrate=2558.2kbits/s speed=1.04x    frame=  649 fps= 58 q=44.0 size=    3678kB time=00:00:11.65 bitrate=2584.9kbits/s speed=1.04x    frame=  680 fps= 58 q=42.0 size=    3826kB time=00:00:12.16 bitrate=2575.9kbits/s speed=1.04x    frame=  710 fps= 58 q=42.0 size=    3958kB time=00:00:12.67 bitrate=2557.4kbits/s speed=1.04x    frame=  739 fps= 58 q=42.0 size=    4084kB time=00:00:13.16 bitrate=2541.0kbits/s speed=1.03x    frame=  770 fps= 58 q=42.0 size=    4250kB time=00:00:13.67 bitrate=2545.9kbits/s speed=1.03x    frame=  802 fps= 58 q=42.0 size=    4435kB time=00:00:14.21 bitrate=2556.8kbits/s speed=1.03x    frame=  833 fps= 58 q=42.0 size=    4580kB time=00:00:14.72 bitrate=2548.8kbits/s speed=1.03x    frame=  863 fps= 58 q=42.0 size=    4707kB time=00:00:15.23 bitrate=2531.2kbits/s speed=1.03x    frame=  894 fps= 58 q=39.0 size=    4848kB time=00:00:15.74 bitrate=2522.6kbits/s speed=1.03x    frame=  923 fps= 58 q=41.0 size=    4963kB time=00:00:16.23 bitrate=2504.9kbits/s speed=1.03x    frame=  954 fps= 59 q=38.0 size=    5124kB time=00:00:16.74 bitrate=2507.1kbits/s speed=1.03x    frame=  984 fps= 59 q=41.0 size=    5271kB time=00:00:17.25 bitrate=2502.6kbits/s speed=1.03x    frame= 1014 fps= 59 q=34.0 size=    5447kB time=00:00:17.74 bitrate=2515.1kbits/s speed=1.03x    frame= 1044 fps= 59 q=40.0 size=    5552kB time=00:00:18.25 bitrate=2492.1kbits/s speed=1.03x    frame= 1075 fps= 59 q=36.0 size=    5760kB time=00:00:18.76 bitrate=2514.9kbits/s speed=1.02x    frame= 1105 fps= 59 q=41.0 size=    5900kB time=00:00:19.27 bitrate=2507.7kbits/s speed=1.02x    frame= 1135 fps= 59 q=41.0 size=    6170kB time=00:00:19.76 bitrate=2557.9kbits/s speed=1.02x    frame= 1165 fps= 59 q=41.0 size=    6349kB time=00:00:20.27 bitrate=2565.6kbits/s speed=1.02x    frame= 1196 fps= 59 q=41.0 size=    6549kB time=00:00:20.78 bitrate=2581.7kbits/s speed=1.02x    frame= 1225 fps= 59 q=41.0 size=    6702kB time=00:00:21.26 bitrate=2581.4kbits/s speed=1.02x    frame= 1256 fps= 59 q=41.0 size=    6895kB time=00:00:21.78 bitrate=2593.3kbits/s speed=1.02x    frame= 1288 fps= 59 q=41.0 size=    7021kB time=00:00:22.31 bitrate=2577.6kbits/s speed=1.02x    frame= 1317 fps= 59 q=41.0 size=    7164kB time=00:00:22.80 bitrate=2573.8kbits/s speed=1.02x    frame= 1347 fps= 59 q=41.0 size=    7285kB time=00:00:23.28 bitrate=2562.3kbits/s speed=1.02x    frame= 1378 fps= 59 q=39.0 size=    7416kB time=00:00:23.82 bitrate=2550.1kbits/s speed=1.02x    frame= 1409 fps= 59 q=38.0 size=    7577kB time=00:00:24.33 bitrate=2550.8kbits/s speed=1.02x    frame= 1440 fps= 59 q=41.0 size=    7721kB time=00:00:24.84 bitrate=2545.7kbits/s speed=1.02x    frame= 1469 fps= 59 q=40.0 size=    7919kB time=00:00:25.33 bitrate=2560.8kbits/s speed=1.02x    frame= 1499 fps= 59 q=41.0 size=    8081kB time=00:00:25.84 bitrate=2561.7kbits/s speed=1.02x    frame= 1530 fps= 59 q=38.0 size=    8244kB time=00:00:26.35 bitrate=2562.4kbits/s speed=1.02x    frame= 1559 fps= 59 q=40.0 size=    8387kB time=00:00:26.84 bitrate=2559.6kbits/s speed=1.02x    frame= 1590 fps= 59 q=41.0 size=    8567kB time=00:00:27.35 bitrate=2565.9kbits/s speed=1.02x    frame= 1620 fps= 59 q=36.0 size=    8712kB time=00:00:27.86 bitrate=2561.4kbits/s speed=1.02x    frame= 1651 fps= 59 q=37.0 size=    8850kB time=00:00:28.37 bitrate=2555.0kbits/s speed=1.02x    frame= 1681 fps= 59 q=33.0 size=    8941kB time=00:00:28.88 bitrate=2535.6kbits/s speed=1.02x    frame= 1712 fps= 59 q=35.0 size=    9137kB time=00:00:29.39 bitrate=2546.3kbits/s speed=1.02x    frame= 1743 fps= 59 q=34.0 size=    9365kB time=00:00:29.90 bitrate=2565.1kbits/s speed=1.02x    frame= 1774 fps= 59 q=40.0 size=    9451kB time=00:00:30.41 bitrate=2545.4kbits/s speed=1.01x    frame= 1804 fps= 59 q=36.0 size=    9658kB time=00:00:30.92 bitrate=2558.1kbits/s speed=1.01x    frame= 1835 fps= 59 q=35.0 size=    9760kB time=00:00:31.43 bitrate=2543.1kbits/s speed=1.01x    frame= 1863 fps= 59 q=32.0 size=    9980kB time=00:00:31.97 bitrate=2556.9kbits/s speed=1.01x    [mov,mp4,m4a,3gp,3g2,mj2 @ 000002144145fec0] Auto-inserting h264_mp4toannexb bitstream filter
frame= 1892 fps= 59 q=31.0 size=   10047kB time=00:00:32.46 bitrate=2535.6kbits/s speed=1.01x    frame= 1923 fps= 59 q=39.0 size=   10315kB time=00:00:32.97 bitrate=2562.7kbits/s speed=1.01x    frame= 1954 fps= 59 q=39.0 size=   10446kB time=00:00:33.48 bitrate=2555.7kbits/s speed=1.01x    frame= 1984 fps= 59 q=39.0 size=   10660kB time=00:00:33.99 bitrate=2568.9kbits/s speed=1.01x    frame= 2015 fps= 59 q=35.0 size=   10765kB time=00:00:34.50 bitrate=2555.8kbits/s speed=1.01x    frame= 2045 fps= 59 q=38.0 size=   10957kB time=00:00:35.01 bitrate=2563.5kbits/s speed=1.01x    frame= 2076 fps= 59 q=38.0 size=   11072kB time=00:00:35.52 bitrate=2553.1kbits/s speed=1.01x    frame= 2107 fps= 59 q=35.0 size=   11276kB time=00:00:36.03 bitrate=2563.2kbits/s speed=1.01x    frame= 2137 fps= 59 q=38.0 size=   11376kB time=00:00:36.54 bitrate=2549.8kbits/s speed=1.01x    frame= 2168 fps= 59 q=35.0 size=   11592kB time=00:00:37.05 bitrate=2562.4kbits/s speed=1.01x    frame= 2198 fps= 59 q=38.0 size=   11678kB time=00:00:37.54 bitrate=2548.0kbits/s speed=1.01x    frame= 2229 fps= 59 q=39.0 size=   11955kB time=00:00:38.08 bitrate=2571.8kbits/s speed=1.01x    frame= 2260 fps= 59 q=40.0 size=   12196kB time=00:00:38.59 bitrate=2589.0kbits/s speed=1.01x    frame= 2290 fps= 59 q=39.0 size=   12363kB time=00:00:39.10 bitrate=2590.0kbits/s speed=1.01x    frame= 2321 fps= 59 q=41.0 size=   12536kB time=00:00:39.61 bitrate=2592.4kbits/s speed=1.01x    frame= 2352 fps= 59 q=40.0 size=   12718kB time=00:00:40.12 bitrate=2596.6kbits/s speed=1.01x    frame= 2382 fps= 59 q=40.0 size=   12866kB time=00:00:40.63 bitrate=2593.9kbits/s speed=1.01x    frame= 2411 fps= 59 q=40.0 size=   13005kB time=00:00:41.12 bitrate=2590.6kbits/s speed=1.01x    frame= 2442 fps= 59 q=40.0 size=   13123kB time=00:00:41.63 bitrate=2582.2kbits/s speed=1.01x    frame= 2472 fps= 59 q=40.0 size=   13345kB time=00:00:42.12 bitrate=2595.5kbits/s speed=1.01x    frame= 2502 fps= 59 q=40.0 size=   13520kB time=00:00:42.63 bitrate=2598.0kbits/s speed=1.01x    frame= 2533 fps= 59 q=44.0 size=   13714kB time=00:00:43.14 bitrate=2604.1kbits/s speed=1.01x    frame= 2564 fps= 59 q=44.0 size=   13898kB time=00:00:43.65 bitrate=2608.1kbits/s speed=1.01x    frame= 2594 fps= 59 q=41.0 size=   14046kB time=00:00:44.16 bitrate=2605.4kbits/s speed=1.01x    frame= 2624 fps= 59 q=41.0 size=   14184kB time=00:00:44.67 bitrate=2600.8kbits/s speed=1.01x    frame= 2655 fps= 59 q=41.0 size=   14329kB time=00:00:45.18 bitrate=2597.8kbits/s speed=1.01x    frame= 2686 fps= 59 q=42.0 size=   14488kB time=00:00:45.69 bitrate=2597.2kbits/s speed=1.01x    frame= 2716 fps= 59 q=41.0 size=   14679kB time=00:00:46.20 bitrate=2602.3kbits/s speed=1.01x    frame= 2747 fps= 59 q=41.0 size=   14789kB time=00:00:46.71 bitrate=2593.3kbits/s speed=1.01x    frame= 2778 fps= 59 q=41.0 size=   14962kB time=00:00:47.22 bitrate=2595.2kbits/s speed=1.01x    frame= 2808 fps= 59 q=41.0 size=   15057kB time=00:00:47.74 bitrate=2583.7kbits/s speed=1.01x    frame= 2839 fps= 59 q=41.0 size=   15199kB time=00:00:48.25 bitrate=2580.5kbits/s speed=1.01x    frame= 2868 fps= 59 q=39.0 size=   15345kB time=00:00:48.73 bitrate=2579.1kbits/s speed=1.01x    frame= 2900 fps= 59 q=38.0 size=   15499kB time=00:00:49.27 bitrate=2576.9kbits/s speed=1.01x    frame= 2929 fps= 59 q=34.0 size=   15605kB time=00:00:49.76 bitrate=2569.1kbits/s speed=1.01x    frame= 2960 fps= 59 q=40.0 size=   15785kB time=00:00:50.27 bitrate=2572.3kbits/s speed=1.01x    frame= 2990 fps= 59 q=36.0 size=   15992kB time=00:00:50.78 bitrate=2579.7kbits/s speed=1.01x    frame= 3021 fps= 59 q=40.0 size=   16130kB time=00:00:51.29 bitrate=2576.1kbits/s speed=1.01x    frame= 3052 fps= 59 q=41.0 size=   16397kB time=00:00:51.80 bitrate=2593.0kbits/s speed=1.01x    frame= 3082 fps= 59 q=41.0 size=   16586kB time=00:00:52.31 bitrate=2597.2kbits/s speed=1.01x    frame= 3113 fps= 59 q=41.0 size=   16807kB time=00:00:52.82 bitrate=2606.5kbits/s speed=1.01x    frame= 3144 fps= 59 q=41.0 size=   16960kB time=00:00:53.33 bitrate=2604.9kbits/s speed=1.01x    frame= 3174 fps= 59 q=41.0 size=   17141kB time=00:00:53.84 bitrate=2607.7kbits/s speed=1.01x    frame= 3205 fps= 59 q=41.0 size=   17271kB time=00:00:54.35 bitrate=2602.8kbits/s speed=1.01x    frame= 3235 fps= 59 q=41.0 size=   17422kB time=00:00:54.86 bitrate=2601.1kbits/s speed=1.01x    frame= 3266 fps= 59 q=41.0 size=   17547kB time=00:00:55.37 bitrate=2595.6kbits/s speed=1.01x    frame= 3296 fps= 59 q=41.0 size=   17671kB time=00:00:55.86 bitrate=2591.1kbits/s speed=1.01x    frame= 3326 fps= 59 q=39.0 size=   17829kB time=00:00:56.37 bitrate=2590.6kbits/s speed=1.01x    frame= 3358 fps= 59 q=41.0 size=   17980kB time=00:00:56.91 bitrate=2588.0kbits/s speed=1.01x    